solid default:import_1
	facet normal 0 0.00269172 0
		outer loop
			vertex -27.8548 43.95 0.191704
			vertex -27.8755 43.95 0.11443
			vertex -27.9069 43.95 0.127417
		endloop
	endfacet
	facet normal 0 0.00103528 0
		outer loop
			vertex -27.8548 43.95 0.191704
			vertex -27.9069 43.95 0.127417
			vertex -27.8669 43.95 0.196699
		endloop
	endfacet
	facet normal 0 0.00269172 -0
		outer loop
			vertex -27.9069 43.95 0.127417
			vertex -27.9338 43.95 0.148076
			vertex -27.8669 43.95 0.196699
		endloop
	endfacet
	facet normal 0 0.00103528 0
		outer loop
			vertex -27.9338 43.95 0.148076
			vertex -27.8772 43.95 0.204645
			vertex -27.8669 43.95 0.196699
		endloop
	endfacet
	facet normal -0 0.00269172 0
		outer loop
			vertex -27.9544 43.95 0.175
			vertex -27.8772 43.95 0.204645
			vertex -27.9338 43.95 0.148076
		endloop
	endfacet
	facet normal 0 0.00103528 0
		outer loop
			vertex -27.8852 43.95 0.215
			vertex -27.8772 43.95 0.204645
			vertex -27.9544 43.95 0.175
		endloop
	endfacet
	facet normal 0 0.00277128 0
		outer loop
			vertex -27.9025 43.95 0.245
			vertex -27.8852 43.95 0.215
			vertex -27.9718 43.95 0.205
		endloop
	endfacet
	facet normal 0 0.00239912 0
		outer loop
			vertex -27.9025 43.95 0.245
			vertex -27.9718 43.95 0.205
			vertex -27.9205 43.95 0.269218
		endloop
	endfacet
	facet normal 0 0.000981091 -0
		outer loop
			vertex -27.9718 43.95 0.205
			vertex -27.9792 43.95 0.214832
			vertex -27.9205 43.95 0.269218
		endloop
	endfacet
	facet normal 0 0.00239676 0
		outer loop
			vertex -27.9792 43.95 0.214832
			vertex -27.9436 43.95 0.288624
			vertex -27.9205 43.95 0.269218
		endloop
	endfacet
	facet normal -0 0.00098343 0
		outer loop
			vertex -27.9888 43.95 0.222548
			vertex -27.9436 43.95 0.288624
			vertex -27.9792 43.95 0.214832
		endloop
	endfacet
	facet normal 0 0.00239471 0
		outer loop
			vertex -27.9706 43.95 0.302169
			vertex -27.9436 43.95 0.288624
			vertex -27.9888 43.95 0.222548
		endloop
	endfacet
	facet normal 0 0.00239297 0
		outer loop
			vertex -28 43.95 0.309125
			vertex -27.9706 43.95 0.302169
			vertex -28 43.95 0.227679
		endloop
	endfacet
	facet normal 0 0.000985442 0
		outer loop
			vertex -27.9706 43.95 0.302169
			vertex -27.9888 43.95 0.222548
			vertex -28 43.95 0.227679
		endloop
	endfacet
	facet normal 0 0.00277128 0
		outer loop
			vertex -27.8852 43.95 0.215
			vertex -27.9544 43.95 0.175
			vertex -27.9718 43.95 0.205
		endloop
	endfacet
	facet normal 0 0.00269172 0
		outer loop
			vertex -27.8548 43.95 0.191704
			vertex -27.8419 43.95 0.11
			vertex -27.8755 43.95 0.11443
		endloop
	endfacet
	facet normal 0 0.00103528 0
		outer loop
			vertex -27.8419 43.95 0.19
			vertex -27.8419 43.95 0.11
			vertex -27.8548 43.95 0.191704
		endloop
	endfacet
	facet normal 0 0.00494804 0
		outer loop
			vertex -27.78 43.95 0.11
			vertex -27.8419 43.95 0.11
			vertex -27.8419 43.95 0.19
		endloop
	endfacet
	facet normal 0 0.00494804 -0
		outer loop
			vertex -27.78 43.95 0.11
			vertex -27.8419 43.95 0.19
			vertex -27.78 43.95 0.19
		endloop
	endfacet
	facet normal 0.0118465 0 0.00909015
		outer loop
			vertex -27.9338 43.95 0.148076
			vertex -27.9544 44.39 0.175
			vertex -27.9544 43.95 0.175
		endloop
	endfacet
	facet normal 0.0118465 0 0.00909015
		outer loop
			vertex -27.9338 44.39 0.148076
			vertex -27.9544 44.39 0.175
			vertex -27.9338 43.95 0.148076
		endloop
	endfacet
	facet normal 0.00909015 0 0.0118465
		outer loop
			vertex -27.9338 44.39 0.148076
			vertex -27.9338 43.95 0.148076
			vertex -27.9069 44.39 0.127417
		endloop
	endfacet
	facet normal 0.00909015 0 0.0118465
		outer loop
			vertex -27.9338 43.95 0.148076
			vertex -27.9069 43.95 0.127417
			vertex -27.9069 44.39 0.127417
		endloop
	endfacet
	facet normal 0.0057143 -0 0.0137956
		outer loop
			vertex -27.9069 43.95 0.127417
			vertex -27.8755 44.39 0.11443
			vertex -27.9069 44.39 0.127417
		endloop
	endfacet
	facet normal 0.0057143 -0 0.0137956
		outer loop
			vertex -27.8755 43.95 0.11443
			vertex -27.8755 44.39 0.11443
			vertex -27.9069 43.95 0.127417
		endloop
	endfacet
	facet normal 0.00194904 0 0.0148044
		outer loop
			vertex -27.8419 44.39 0.11
			vertex -27.8755 44.39 0.11443
			vertex -27.8755 43.95 0.11443
		endloop
	endfacet
	facet normal 0.00194904 0 0.0148044
		outer loop
			vertex -27.8419 44.39 0.11
			vertex -27.8755 43.95 0.11443
			vertex -27.8419 43.95 0.11
		endloop
	endfacet
	facet normal -0.00455635 0 -0.00349621
		outer loop
			vertex -27.8772 44.39 0.204645
			vertex -27.8852 43.95 0.215
			vertex -27.8852 44.39 0.215
		endloop
	endfacet
	facet normal -0.00455635 0 -0.00349621
		outer loop
			vertex -27.8772 43.95 0.204645
			vertex -27.8852 43.95 0.215
			vertex -27.8772 44.39 0.204645
		endloop
	endfacet
	facet normal -0.00349621 0 -0.00455635
		outer loop
			vertex -27.8772 43.95 0.204645
			vertex -27.8772 44.39 0.204645
			vertex -27.8669 43.95 0.196699
		endloop
	endfacet
	facet normal -0.00349621 0 -0.00455635
		outer loop
			vertex -27.8772 44.39 0.204645
			vertex -27.8669 44.39 0.196699
			vertex -27.8669 43.95 0.196699
		endloop
	endfacet
	facet normal -0.00219781 -0 -0.00530598
		outer loop
			vertex -27.8669 44.39 0.196699
			vertex -27.8548 43.95 0.191704
			vertex -27.8669 43.95 0.196699
		endloop
	endfacet
	facet normal -0.00219781 -0 -0.00530598
		outer loop
			vertex -27.8548 44.39 0.191704
			vertex -27.8548 43.95 0.191704
			vertex -27.8669 44.39 0.196699
		endloop
	endfacet
	facet normal -0.000749632 0 -0.00569402
		outer loop
			vertex -27.8419 44.39 0.19
			vertex -27.8548 43.95 0.191704
			vertex -27.8548 44.39 0.191704
		endloop
	endfacet
	facet normal -0.000749632 0 -0.00569402
		outer loop
			vertex -27.8419 43.95 0.19
			vertex -27.8548 43.95 0.191704
			vertex -27.8419 44.39 0.19
		endloop
	endfacet
	facet normal 0.0132 0 0.00762102
		outer loop
			vertex -27.9718 44.39 0.205
			vertex -27.9544 43.95 0.175
			vertex -27.9544 44.39 0.175
		endloop
	endfacet
	facet normal 0.0132 2.75644e-014 0.00762102
		outer loop
			vertex -27.9718 43.95 0.205
			vertex -27.9544 43.95 0.175
			vertex -27.9718 44.39 0.205
		endloop
	endfacet
	facet normal -0.0132 0 -0.00762102
		outer loop
			vertex -27.9025 43.95 0.245
			vertex -27.8852 44.39 0.215
			vertex -27.8852 43.95 0.215
		endloop
	endfacet
	facet normal -0.0132 -0 -0.00762102
		outer loop
			vertex -27.9025 44.39 0.245
			vertex -27.8852 44.39 0.215
			vertex -27.9025 43.95 0.245
		endloop
	endfacet
	facet normal 4.32154e-015 0 0.315646
		outer loop
			vertex -27.7107 44.43 0.11
			vertex -27.36 43.72 0.11
			vertex -27.36 44.62 0.11
		endloop
	endfacet
	facet normal 9.26466e-017 -3.83755e-017 0.00524843
		outer loop
			vertex -27.7107 44.43 0.11
			vertex -27.36 44.62 0.11
			vertex -27.7027 44.4493 0.11
		endloop
	endfacet
	facet normal 4.35822e-016 -6.88481e-016 0.00663099
		outer loop
			vertex -27.36 44.62 0.11
			vertex -27.7 44.47 0.11
			vertex -27.7027 44.4493 0.11
		endloop
	endfacet
	facet normal 1.01585e-015 0 0.051
		outer loop
			vertex -27.7 44.62 0.11
			vertex -27.7 44.47 0.11
			vertex -27.36 44.62 0.11
		endloop
	endfacet
	facet normal 2.29935e-017 -1.76435e-017 0.00661101
		outer loop
			vertex -27.7234 44.4134 0.11
			vertex -27.7107 43.91 0.11
			vertex -27.7107 44.43 0.11
		endloop
	endfacet
	facet normal 1.51157e-015 -4.86719e-016 0.182373
		outer loop
			vertex -27.7107 43.91 0.11
			vertex -27.36 43.72 0.11
			vertex -27.7107 44.43 0.11
		endloop
	endfacet
	facet normal 3.68655e-017 -2.62548e-017 0.00524843
		outer loop
			vertex -27.7027 43.8907 0.11
			vertex -27.36 43.72 0.11
			vertex -27.7107 43.91 0.11
		endloop
	endfacet
	facet normal 5.80505e-017 -1.01351e-017 0.00663099
		outer loop
			vertex -27.7 43.87 0.11
			vertex -27.36 43.72 0.11
			vertex -27.7027 43.8907 0.11
		endloop
	endfacet
	facet normal 1.01585e-015 1.21264e-015 0.051
		outer loop
			vertex -27.7 43.72 0.11
			vertex -27.36 43.72 0.11
			vertex -27.7 43.87 0.11
		endloop
	endfacet
	facet normal 1.42912e-017 -1.86247e-017 0.00806661
		outer loop
			vertex -27.74 44.4007 0.11
			vertex -27.7234 43.9266 0.11
			vertex -27.7234 44.4134 0.11
		endloop
	endfacet
	facet normal 1.0975e-016 -1.42912e-017 0.00618973
		outer loop
			vertex -27.7234 43.9266 0.11
			vertex -27.7107 43.91 0.11
			vertex -27.7234 44.4134 0.11
		endloop
	endfacet
	facet normal 1.37052e-016 -1.33362e-017 0.00764532
		outer loop
			vertex -27.74 44.4007 0.11
			vertex -27.74 43.9393 0.11
			vertex -27.7234 43.9266 0.11
		endloop
	endfacet
	facet normal 6.43288e-018 -1.55303e-017 0.00890316
		outer loop
			vertex -27.7593 44.3927 0.11
			vertex -27.74 43.9393 0.11
			vertex -27.74 44.4007 0.11
		endloop
	endfacet
	facet normal 1.69765e-016 -8.03294e-018 0.00859476
		outer loop
			vertex -27.7593 43.9473 0.11
			vertex -27.74 43.9393 0.11
			vertex -27.7593 44.3927 0.11
		endloop
	endfacet
	facet normal 1.73427e-016 -7.41355e-017 0.00911043
		outer loop
			vertex -27.78 43.95 0.11
			vertex -27.7593 43.9473 0.11
			vertex -27.78 44.39 0.11
		endloop
	endfacet
	facet normal -8.72458e-014 0 0.0272142
		outer loop
			vertex -27.8419 43.95 0.11
			vertex -27.78 43.95 0.11
			vertex -27.8419 44.39 0.11
		endloop
	endfacet
	facet normal -8.88212e-014 -2.21454e-016 0.0272142
		outer loop
			vertex -27.78 43.95 0.11
			vertex -27.78 44.39 0.11
			vertex -27.8419 44.39 0.11
		endloop
	endfacet
	facet normal 1.59606e-015 -8.62041e-018 0.00922331
		outer loop
			vertex -27.7593 44.3927 0.11
			vertex -27.78 44.39 0.11
			vertex -27.7593 43.9473 0.11
		endloop
	endfacet
	facet normal 0.000218075 0.00165644 0
		outer loop
			vertex -27.78 43.95 0.19
			vertex -27.7593 43.9473 0.11
			vertex -27.78 43.95 0.11
		endloop
	endfacet
	facet normal 0.000218075 0.00165644 0
		outer loop
			vertex -27.7593 43.9473 0.19
			vertex -27.7593 43.9473 0.11
			vertex -27.78 43.95 0.19
		endloop
	endfacet
	facet normal 0.000639363 0.00154356 0
		outer loop
			vertex -27.74 43.9393 0.19
			vertex -27.7593 43.9473 0.11
			vertex -27.7593 43.9473 0.19
		endloop
	endfacet
	facet normal 0.000639363 0.00154356 -0
		outer loop
			vertex -27.74 43.9393 0.11
			vertex -27.7593 43.9473 0.11
			vertex -27.74 43.9393 0.19
		endloop
	endfacet
	facet normal 0.00101708 0.00132548 -0
		outer loop
			vertex -27.74 43.9393 0.11
			vertex -27.74 43.9393 0.19
			vertex -27.7234 43.9266 0.11
		endloop
	endfacet
	facet normal 0.00101708 0.00132548 0
		outer loop
			vertex -27.74 43.9393 0.19
			vertex -27.7234 43.9266 0.19
			vertex -27.7234 43.9266 0.11
		endloop
	endfacet
	facet normal 0.00132548 0.00101708 0
		outer loop
			vertex -27.7234 43.9266 0.19
			vertex -27.7107 43.91 0.11
			vertex -27.7234 43.9266 0.11
		endloop
	endfacet
	facet normal 0.00132548 0.00101708 0
		outer loop
			vertex -27.7107 43.91 0.19
			vertex -27.7107 43.91 0.11
			vertex -27.7234 43.9266 0.19
		endloop
	endfacet
	facet normal 0.00154356 0.000639363 0
		outer loop
			vertex -27.7027 43.8907 0.11
			vertex -27.7107 43.91 0.11
			vertex -27.7107 43.91 0.19
		endloop
	endfacet
	facet normal 0.00165644 0.000218075 0
		outer loop
			vertex -27.7 43.87 0.19
			vertex -27.7027 43.8907 0.11
			vertex -27.7027 43.8907 0.19
		endloop
	endfacet
	facet normal 0.00154356 0.000639363 -0
		outer loop
			vertex -27.7027 43.8907 0.11
			vertex -27.7107 43.91 0.19
			vertex -27.7027 43.8907 0.19
		endloop
	endfacet
	facet normal 0.00165644 0.000218075 0
		outer loop
			vertex -27.7 43.87 0.19
			vertex -27.7 43.87 0.11
			vertex -27.7027 43.8907 0.11
		endloop
	endfacet
	facet normal 9.17522e-014 0 -0.0272142
		outer loop
			vertex -27.78 44.39 0.19
			vertex -27.8419 43.95 0.19
			vertex -27.8419 44.39 0.19
		endloop
	endfacet
	facet normal 9.17522e-014 0 -0.0272142
		outer loop
			vertex -27.78 43.95 0.19
			vertex -27.8419 43.95 0.19
			vertex -27.78 44.39 0.19
		endloop
	endfacet
	facet normal 0 0 -0.00922331
		outer loop
			vertex -27.7593 43.9473 0.19
			vertex -27.78 43.95 0.19
			vertex -27.7593 44.3927 0.19
		endloop
	endfacet
	facet normal 0 0 -0.00890316
		outer loop
			vertex -27.74 43.9393 0.19
			vertex -27.7593 43.9473 0.19
			vertex -27.74 44.4007 0.19
		endloop
	endfacet
	facet normal 0 0 -0.00806661
		outer loop
			vertex -27.7234 43.9266 0.19
			vertex -27.74 43.9393 0.19
			vertex -27.7234 44.4134 0.19
		endloop
	endfacet
	facet normal 0 0 -0.00661101
		outer loop
			vertex -27.7107 43.91 0.19
			vertex -27.7234 43.9266 0.19
			vertex -27.7107 44.43 0.19
		endloop
	endfacet
	facet normal 0 0 -0.315646
		outer loop
			vertex -27.36 43.72 0.19
			vertex -27.7107 43.91 0.19
			vertex -27.36 44.62 0.19
		endloop
	endfacet
	facet normal 0 0 -0.182373
		outer loop
			vertex -27.7107 43.91 0.19
			vertex -27.7107 44.43 0.19
			vertex -27.36 44.62 0.19
		endloop
	endfacet
	facet normal 0 0 -0.00524843
		outer loop
			vertex -27.7107 44.43 0.19
			vertex -27.7027 44.4493 0.19
			vertex -27.36 44.62 0.19
		endloop
	endfacet
	facet normal 0 0 -0.00663099
		outer loop
			vertex -27.7027 44.4493 0.19
			vertex -27.7 44.47 0.19
			vertex -27.36 44.62 0.19
		endloop
	endfacet
	facet normal 0 0 -0.051
		outer loop
			vertex -27.7 44.47 0.19
			vertex -27.7 44.62 0.19
			vertex -27.36 44.62 0.19
		endloop
	endfacet
	facet normal 0 0 -0.00524843
		outer loop
			vertex -27.36 43.72 0.19
			vertex -27.7027 43.8907 0.19
			vertex -27.7107 43.91 0.19
		endloop
	endfacet
	facet normal 0 0 -0.00663099
		outer loop
			vertex -27.7 43.87 0.19
			vertex -27.7027 43.8907 0.19
			vertex -27.36 43.72 0.19
		endloop
	endfacet
	facet normal 0 0 -0.051
		outer loop
			vertex -27.7 43.87 0.19
			vertex -27.36 43.72 0.19
			vertex -27.7 43.72 0.19
		endloop
	endfacet
	facet normal 0 0 -0.00618973
		outer loop
			vertex -27.7234 43.9266 0.19
			vertex -27.7234 44.4134 0.19
			vertex -27.7107 44.43 0.19
		endloop
	endfacet
	facet normal 0 0 -0.00764532
		outer loop
			vertex -27.74 43.9393 0.19
			vertex -27.74 44.4007 0.19
			vertex -27.7234 44.4134 0.19
		endloop
	endfacet
	facet normal 0 0 -0.00859476
		outer loop
			vertex -27.7593 43.9473 0.19
			vertex -27.7593 44.3927 0.19
			vertex -27.74 44.4007 0.19
		endloop
	endfacet
	facet normal 0 0 -0.00911043
		outer loop
			vertex -27.78 43.95 0.19
			vertex -27.78 44.39 0.19
			vertex -27.7593 44.3927 0.19
		endloop
	endfacet
	facet normal 0.00432622 9.73149e-015 0.00326944
		outer loop
			vertex -27.9792 44.39 0.214832
			vertex -27.9718 43.95 0.205
			vertex -27.9718 44.39 0.205
		endloop
	endfacet
	facet normal 0.00432622 -6.18716e-019 0.00326944
		outer loop
			vertex -27.9792 43.95 0.214832
			vertex -27.9718 43.95 0.205
			vertex -27.9792 44.39 0.214832
		endloop
	endfacet
	facet normal 0.00339508 -8.00182e-019 0.00422834
		outer loop
			vertex -27.9792 43.95 0.214832
			vertex -27.9792 44.39 0.214832
			vertex -27.9888 43.95 0.222548
		endloop
	endfacet
	facet normal 0.00339508 2.68747e-017 0.00422834
		outer loop
			vertex -27.9792 44.39 0.214832
			vertex -27.9888 44.39 0.222548
			vertex -27.9888 43.95 0.222548
		endloop
	endfacet
	facet normal 0.00225767 1.76072e-017 0.00493035
		outer loop
			vertex -27.9888 44.39 0.222548
			vertex -28 43.95 0.227679
			vertex -27.9888 43.95 0.222548
		endloop
	endfacet
	facet normal 0.00225767 0 0.00493035
		outer loop
			vertex -28 44.39 0.227679
			vertex -28 43.95 0.227679
			vertex -27.9888 44.39 0.222548
		endloop
	endfacet
	facet normal 0.000766811 0 0.00332943
		outer loop
			vertex -28.0076 44.3904 0.229422
			vertex -28 43.95 0.227679
			vertex -28 44.39 0.227679
		endloop
	endfacet
	facet normal 0.000768103 -5.98148e-018 0.00333504
		outer loop
			vertex -28.0076 43.9496 0.229422
			vertex -28 43.95 0.227679
			vertex -28.0076 44.3904 0.229422
		endloop
	endfacet
	facet normal 0.000255879 -0 0.00331642
		outer loop
			vertex -28.0151 43.9486 0.23
			vertex -28.0076 43.9496 0.229422
			vertex -28.0151 44.3914 0.23
		endloop
	endfacet
	facet normal 0.000254655 -1.84486e-018 0.00330056
		outer loop
			vertex -28.0076 43.9496 0.229422
			vertex -28.0076 44.3904 0.229422
			vertex -28.0151 44.3914 0.23
		endloop
	endfacet
	facet normal -0.000193232 -8.85362e-012 -0.00333703
		outer loop
			vertex -28.0038 44.3901 0.309509
			vertex -28.0113 43.9492 0.309946
			vertex -28.0113 44.3908 0.309946
		endloop
	endfacet
	facet normal -0.000192605 1.13851e-012 -0.00332619
		outer loop
			vertex -28.0038 43.9499 0.309509
			vertex -28.0113 43.9492 0.309946
			vertex -28.0038 44.3901 0.309509
		endloop
	endfacet
	facet normal -0.000168833 -2.8467e-013 -0.00165742
		outer loop
			vertex -28.0038 43.9499 0.309509
			vertex -28.0038 44.3901 0.309509
			vertex -28 43.95 0.309125
		endloop
	endfacet
	facet normal -0.000168941 -1.90849e-010 -0.00165827
		outer loop
			vertex -28.0038 44.3901 0.309509
			vertex -28 44.39 0.309125
			vertex -28 43.95 0.309125
		endloop
	endfacet
	facet normal -0.00306054 1.21325e-008 -0.0129277
		outer loop
			vertex -28 44.39 0.309125
			vertex -27.9706 43.95 0.302169
			vertex -28 43.95 0.309125
		endloop
	endfacet
	facet normal -0.00306076 -9.09919e-009 -0.0129273
		outer loop
			vertex -27.9706 44.39 0.302169
			vertex -27.9706 43.95 0.302169
			vertex -28 44.39 0.309125
		endloop
	endfacet
	facet normal -0.00596022 9.09971e-009 -0.011873
		outer loop
			vertex -27.9436 43.95 0.288624
			vertex -27.9706 43.95 0.302169
			vertex -27.9706 44.39 0.302169
		endloop
	endfacet
	facet normal -0.00853838 6.06665e-009 -0.0101778
		outer loop
			vertex -27.9205 43.95 0.269218
			vertex -27.9436 43.95 0.288624
			vertex -27.9436 44.39 0.288623
		endloop
	endfacet
	facet normal -0.0106557 3.03341e-009 -0.0079334
		outer loop
			vertex -27.9025 44.39 0.245
			vertex -27.9205 43.95 0.269218
			vertex -27.9205 44.39 0.269217
		endloop
	endfacet
	facet normal -0.00853824 -3.03324e-009 -0.0101775
		outer loop
			vertex -27.9205 43.95 0.269218
			vertex -27.9436 44.39 0.288623
			vertex -27.9205 44.39 0.269217
		endloop
	endfacet
	facet normal -0.010656 -0 -0.00793366
		outer loop
			vertex -27.9025 44.39 0.245
			vertex -27.9025 43.95 0.245
			vertex -27.9205 43.95 0.269218
		endloop
	endfacet
	facet normal -0.00596025 -6.0663e-009 -0.0118726
		outer loop
			vertex -27.9436 43.95 0.288624
			vertex -27.9706 44.39 0.302169
			vertex -27.9436 44.39 0.288623
		endloop
	endfacet
	facet normal 0.00165644 -0.000218075 7.35608e-017
		outer loop
			vertex -27.7 44.47 0.19
			vertex -27.7027 44.4493 0.11
			vertex -27.7 44.47 0.11
		endloop
	endfacet
	facet normal 0.00165644 -0.000218075 0
		outer loop
			vertex -27.7027 44.4493 0.19
			vertex -27.7027 44.4493 0.11
			vertex -27.7 44.47 0.19
		endloop
	endfacet
	facet normal 0.00154356 -0.000639363 0
		outer loop
			vertex -27.7107 44.43 0.19
			vertex -27.7027 44.4493 0.11
			vertex -27.7027 44.4493 0.19
		endloop
	endfacet
	facet normal 0.00154356 -0.000639363 0
		outer loop
			vertex -27.7107 44.43 0.11
			vertex -27.7027 44.4493 0.11
			vertex -27.7107 44.43 0.19
		endloop
	endfacet
	facet normal 0.00132548 -0.00101708 0
		outer loop
			vertex -27.7107 44.43 0.11
			vertex -27.7107 44.43 0.19
			vertex -27.7234 44.4134 0.11
		endloop
	endfacet
	facet normal 0.00132548 -0.00101708 0
		outer loop
			vertex -27.7107 44.43 0.19
			vertex -27.7234 44.4134 0.19
			vertex -27.7234 44.4134 0.11
		endloop
	endfacet
	facet normal 0.00101708 -0.00132548 0
		outer loop
			vertex -27.7234 44.4134 0.19
			vertex -27.74 44.4007 0.11
			vertex -27.7234 44.4134 0.11
		endloop
	endfacet
	facet normal 0.00101708 -0.00132548 0
		outer loop
			vertex -27.74 44.4007 0.19
			vertex -27.74 44.4007 0.11
			vertex -27.7234 44.4134 0.19
		endloop
	endfacet
	facet normal 0.000639363 -0.00154356 0
		outer loop
			vertex -27.7593 44.3927 0.11
			vertex -27.74 44.4007 0.11
			vertex -27.74 44.4007 0.19
		endloop
	endfacet
	facet normal 0.000218075 -0.00165644 0
		outer loop
			vertex -27.78 44.39 0.19
			vertex -27.7593 44.3927 0.11
			vertex -27.7593 44.3927 0.19
		endloop
	endfacet
	facet normal 0.000639363 -0.00154356 0
		outer loop
			vertex -27.7593 44.3927 0.11
			vertex -27.74 44.4007 0.19
			vertex -27.7593 44.3927 0.19
		endloop
	endfacet
	facet normal 0.000218075 -0.00165644 0
		outer loop
			vertex -27.78 44.39 0.19
			vertex -27.78 44.39 0.11
			vertex -27.7593 44.3927 0.11
		endloop
	endfacet
	facet normal 0.012 0 0
		outer loop
			vertex -27.7 44.62 0.19
			vertex -27.7 44.47 0.11
			vertex -27.7 44.62 0.11
		endloop
	endfacet
	facet normal 0.012 -2.84217e-016 5.32907e-016
		outer loop
			vertex -27.7 44.47 0.19
			vertex -27.7 44.47 0.11
			vertex -27.7 44.62 0.19
		endloop
	endfacet
	facet normal 0 -0.0272 -0
		outer loop
			vertex -27.36 44.62 0.19
			vertex -27.7 44.62 0.11
			vertex -27.36 44.62 0.11
		endloop
	endfacet
	facet normal 0 -0.0272 0
		outer loop
			vertex -27.7 44.62 0.19
			vertex -27.7 44.62 0.11
			vertex -27.36 44.62 0.19
		endloop
	endfacet
	facet normal -0.072 0 0
		outer loop
			vertex -27.36 43.72 0.19
			vertex -27.36 44.62 0.11
			vertex -27.36 43.72 0.11
		endloop
	endfacet
	facet normal -0.072 -0 -0
		outer loop
			vertex -27.36 44.62 0.19
			vertex -27.36 44.62 0.11
			vertex -27.36 43.72 0.19
		endloop
	endfacet
	facet normal 0 0.0272 0
		outer loop
			vertex -27.7 43.72 0.19
			vertex -27.36 43.72 0.11
			vertex -27.7 43.72 0.11
		endloop
	endfacet
	facet normal 0 0.0272 0
		outer loop
			vertex -27.36 43.72 0.19
			vertex -27.36 43.72 0.11
			vertex -27.7 43.72 0.19
		endloop
	endfacet
	facet normal 0.012 2.84217e-016 0
		outer loop
			vertex -27.7 43.87 0.19
			vertex -27.7 43.72 0.11
			vertex -27.7 43.87 0.11
		endloop
	endfacet
	facet normal 0.012 2.84217e-016 0
		outer loop
			vertex -27.7 43.72 0.19
			vertex -27.7 43.72 0.11
			vertex -27.7 43.87 0.19
		endloop
	endfacet
	facet normal -8.50038e-005 0.000600848 -7.21754e-007
		outer loop
			vertex -28.0113 43.9492 0.309946
			vertex -28.0076 43.9496 0.229422
			vertex -28.0151 43.9486 0.23
		endloop
	endfacet
	facet normal -5.75086e-005 0.000606836 5.92686e-007
		outer loop
			vertex -28.0038 43.9499 0.309509
			vertex -28.0076 43.9496 0.229422
			vertex -28.0113 43.9492 0.309946
		endloop
	endfacet
	facet normal -3.018e-005 0.000612631 -7.24948e-007
		outer loop
			vertex -28 43.95 0.227679
			vertex -28.0076 43.9496 0.229422
			vertex -28.0038 43.9499 0.309509
		endloop
	endfacet
	facet normal -0 0 0.00410809
		outer loop
			vertex -28.1182 44.5543 0.23
			vertex -28.08 44.47 0.23
			vertex -28.08 44.5775 0.23
		endloop
	endfacet
	facet normal -0 0 0.0041185
		outer loop
			vertex -28.1605 44.5399 0.23
			vertex -28.08 44.47 0.23
			vertex -28.1182 44.5543 0.23
		endloop
	endfacet
	facet normal 0 0 0.00132303
		outer loop
			vertex -28.0779 44.4517 0.23
			vertex -28.08 44.47 0.23
			vertex -28.1605 44.5399 0.23
		endloop
	endfacet
	facet normal 0 0 0.00168019
		outer loop
			vertex -28.0717 44.4344 0.23
			vertex -28.0779 44.4517 0.23
			vertex -28.205 44.535 0.23
		endloop
	endfacet
	facet normal 0 0 0.00168623
		outer loop
			vertex -28.0617 44.419 0.23
			vertex -28.0717 44.4344 0.23
			vertex -28.2495 44.5399 0.23
		endloop
	endfacet
	facet normal 0 0 0.00660386
		outer loop
			vertex -28.0484 43.9337 0.23
			vertex -28.0617 44.419 0.23
			vertex -28.0617 43.921 0.23
		endloop
	endfacet
	facet normal 0 0 0.0935321
		outer loop
			vertex -28.0617 44.419 0.23
			vertex -28.2495 44.5399 0.23
			vertex -28.0617 43.921 0.23
		endloop
	endfacet
	facet normal 0 0 0.0234991
		outer loop
			vertex -28.2495 44.5399 0.23
			vertex -28.2918 44.5543 0.23
			vertex -28.0617 43.921 0.23
		endloop
	endfacet
	facet normal 0 0 0.00988402
		outer loop
			vertex -28.2918 44.5543 0.23
			vertex -28.0717 43.9056 0.23
			vertex -28.0617 43.921 0.23
		endloop
	endfacet
	facet normal 0 0 0.200015
		outer loop
			vertex -28.2932 43.6499 0.23
			vertex -28.0717 43.9056 0.23
			vertex -28.2918 44.5543 0.23
		endloop
	endfacet
	facet normal 0 0 0.0350354
		outer loop
			vertex -28.33 43.6243 0.23
			vertex -28.2932 43.6499 0.23
			vertex -28.33 44.5775 0.23
		endloop
	endfacet
	facet normal 0 -0 0.0345873
		outer loop
			vertex -28.2932 43.6499 0.23
			vertex -28.2918 44.5543 0.23
			vertex -28.33 44.5775 0.23
		endloop
	endfacet
	facet normal 0 -0 0.00626635
		outer loop
			vertex -28.0484 43.9337 0.23
			vertex -28.0484 44.4063 0.23
			vertex -28.0617 44.419 0.23
		endloop
	endfacet
	facet normal 0 0 0.00747372
		outer loop
			vertex -28.0326 43.9431 0.23
			vertex -28.0484 44.4063 0.23
			vertex -28.0484 43.9337 0.23
		endloop
	endfacet
	facet normal 0 0 0.00717751
		outer loop
			vertex -28.0326 44.3969 0.23
			vertex -28.0484 44.4063 0.23
			vertex -28.0326 43.9431 0.23
		endloop
	endfacet
	facet normal 0 0 0.007765
		outer loop
			vertex -28.0151 44.3914 0.23
			vertex -28.0326 44.3969 0.23
			vertex -28.0151 43.9486 0.23
		endloop
	endfacet
	facet normal 0 0 0.0079582
		outer loop
			vertex -28.0326 44.3969 0.23
			vertex -28.0326 43.9431 0.23
			vertex -28.0151 43.9486 0.23
		endloop
	endfacet
	facet normal 0 0 0.0022414
		outer loop
			vertex -28.2932 43.6499 0.23
			vertex -28.0779 43.8883 0.23
			vertex -28.0717 43.9056 0.23
		endloop
	endfacet
	facet normal 0 -0 0.00620687
		outer loop
			vertex -28.2518 43.667 0.23
			vertex -28.0779 43.8883 0.23
			vertex -28.2932 43.6499 0.23
		endloop
	endfacet
	facet normal 0 -0 0.00270792
		outer loop
			vertex -28.08 43.87 0.23
			vertex -28.0779 43.8883 0.23
			vertex -28.2518 43.667 0.23
		endloop
	endfacet
	facet normal 0 -0 0.00241828
		outer loop
			vertex -28.195 43.675 0.23
			vertex -28.08 43.87 0.23
			vertex -28.2076 43.6746 0.23
		endloop
	endfacet
	facet normal 0 0 0.00765487
		outer loop
			vertex -28.08 43.87 0.23
			vertex -28.2518 43.667 0.23
			vertex -28.2076 43.6746 0.23
		endloop
	endfacet
	facet normal 0 0 0.00912651
		outer loop
			vertex -28.08 43.87 0.23
			vertex -28.1196 43.6606 0.23
			vertex -28.08 43.6397 0.23
		endloop
	endfacet
	facet normal -0 0 0.00951965
		outer loop
			vertex -28.1629 43.6725 0.23
			vertex -28.1196 43.6606 0.23
			vertex -28.08 43.87 0.23
		endloop
	endfacet
	facet normal 0 -0 0.00655834
		outer loop
			vertex -28.1629 43.6725 0.23
			vertex -28.08 43.87 0.23
			vertex -28.195 43.675 0.23
		endloop
	endfacet
	facet normal 0 0 0.00381949
		outer loop
			vertex -28.0717 44.4344 0.23
			vertex -28.205 44.535 0.23
			vertex -28.2495 44.5399 0.23
		endloop
	endfacet
	facet normal 0 0 0.00432114
		outer loop
			vertex -28.0779 44.4517 0.23
			vertex -28.1605 44.5399 0.23
			vertex -28.205 44.535 0.23
		endloop
	endfacet
	facet normal -8.50037e-005 -0.000600848 -7.21754e-007
		outer loop
			vertex -28.0076 44.3904 0.229422
			vertex -28.0113 44.3908 0.309946
			vertex -28.0151 44.3914 0.23
		endloop
	endfacet
	facet normal -5.7509e-005 -0.000606838 5.92695e-007
		outer loop
			vertex -28.0038 44.3901 0.309509
			vertex -28.0113 44.3908 0.309946
			vertex -28.0076 44.3904 0.229422
		endloop
	endfacet
	facet normal -3.018e-005 -0.000612631 -7.24948e-007
		outer loop
			vertex -28.0038 44.3901 0.309509
			vertex -28.0076 44.3904 0.229422
			vertex -28 44.39 0.227679
		endloop
	endfacet
	facet normal 0 -0.0023929 0
		outer loop
			vertex -28 44.39 0.227679
			vertex -27.9706 44.39 0.302169
			vertex -28 44.39 0.309125
		endloop
	endfacet
	facet normal 0 -0.000985445 0
		outer loop
			vertex -27.9888 44.39 0.222548
			vertex -27.9706 44.39 0.302169
			vertex -28 44.39 0.227679
		endloop
	endfacet
	facet normal -0 -0.00239464 0
		outer loop
			vertex -27.9436 44.39 0.288623
			vertex -27.9706 44.39 0.302169
			vertex -27.9888 44.39 0.222548
		endloop
	endfacet
	facet normal -0 -0.00239669 0
		outer loop
			vertex -27.9205 44.39 0.269217
			vertex -27.9436 44.39 0.288623
			vertex -27.9792 44.39 0.214832
		endloop
	endfacet
	facet normal -0 -0.00239905 0
		outer loop
			vertex -27.9025 44.39 0.245
			vertex -27.9205 44.39 0.269217
			vertex -27.9718 44.39 0.205
		endloop
	endfacet
	facet normal 0 -0.00277128 -0
		outer loop
			vertex -27.9025 44.39 0.245
			vertex -27.9718 44.39 0.205
			vertex -27.8852 44.39 0.215
		endloop
	endfacet
	facet normal 0 -0.00277128 0
		outer loop
			vertex -27.9718 44.39 0.205
			vertex -27.9544 44.39 0.175
			vertex -27.8852 44.39 0.215
		endloop
	endfacet
	facet normal 0 -0.00103528 0
		outer loop
			vertex -27.9544 44.39 0.175
			vertex -27.8772 44.39 0.204645
			vertex -27.8852 44.39 0.215
		endloop
	endfacet
	facet normal 0 -0.00269172 0
		outer loop
			vertex -27.9338 44.39 0.148076
			vertex -27.8772 44.39 0.204645
			vertex -27.9544 44.39 0.175
		endloop
	endfacet
	facet normal -0 -0.00103528 0
		outer loop
			vertex -27.8669 44.39 0.196699
			vertex -27.8772 44.39 0.204645
			vertex -27.9338 44.39 0.148076
		endloop
	endfacet
	facet normal -0 -0.00103528 0
		outer loop
			vertex -27.8548 44.39 0.191704
			vertex -27.8669 44.39 0.196699
			vertex -27.9069 44.39 0.127417
		endloop
	endfacet
	facet normal 0 -0.00269172 0
		outer loop
			vertex -27.8419 44.39 0.11
			vertex -27.8548 44.39 0.191704
			vertex -27.8755 44.39 0.11443
		endloop
	endfacet
	facet normal 0 -0.00269172 0
		outer loop
			vertex -27.8548 44.39 0.191704
			vertex -27.9069 44.39 0.127417
			vertex -27.8755 44.39 0.11443
		endloop
	endfacet
	facet normal 0 -0.00103528 0
		outer loop
			vertex -27.8419 44.39 0.11
			vertex -27.8419 44.39 0.19
			vertex -27.8548 44.39 0.191704
		endloop
	endfacet
	facet normal 0 -0.00494804 0
		outer loop
			vertex -27.78 44.39 0.19
			vertex -27.8419 44.39 0.19
			vertex -27.8419 44.39 0.11
		endloop
	endfacet
	facet normal 0 -0.00494804 -0
		outer loop
			vertex -27.78 44.39 0.19
			vertex -27.8419 44.39 0.11
			vertex -27.78 44.39 0.11
		endloop
	endfacet
	facet normal 0 -0.00269172 0
		outer loop
			vertex -27.8669 44.39 0.196699
			vertex -27.9338 44.39 0.148076
			vertex -27.9069 44.39 0.127417
		endloop
	endfacet
	facet normal 0 -0.000981092 0
		outer loop
			vertex -27.9205 44.39 0.269217
			vertex -27.9792 44.39 0.214832
			vertex -27.9718 44.39 0.205
		endloop
	endfacet
	facet normal 0 -0.000983432 0
		outer loop
			vertex -27.9436 44.39 0.288623
			vertex -27.9888 44.39 0.222548
			vertex -27.9792 44.39 0.214832
		endloop
	endfacet
	facet normal -0.00860154 0 0
		outer loop
			vertex -28.08 44.5775 0.23
			vertex -28.08 44.47 0.31
			vertex -28.08 44.5775 0.31
		endloop
	endfacet
	facet normal -0.00860154 0 0
		outer loop
			vertex -28.08 44.47 0.23
			vertex -28.08 44.47 0.31
			vertex -28.08 44.5775 0.23
		endloop
	endfacet
	facet normal -0.000440749 -0.0014027 1.45394e-011
		outer loop
			vertex -28.0326 44.3969 0.31
			vertex -28.0151 44.3914 0.23
			vertex -28.0151 44.3914 0.31
		endloop
	endfacet
	facet normal -0.000440749 -0.0014027 -4.29052e-012
		outer loop
			vertex -28.0326 44.3969 0.23
			vertex -28.0151 44.3914 0.23
			vertex -28.0326 44.3969 0.31
		endloop
	endfacet
	facet normal -0.000749238 -0.0012651 4.2906e-012
		outer loop
			vertex -28.0326 44.3969 0.23
			vertex -28.0326 44.3969 0.31
			vertex -28.0484 44.4063 0.23
		endloop
	endfacet
	facet normal -0.000749238 -0.0012651 -3.43245e-012
		outer loop
			vertex -28.0326 44.3969 0.31
			vertex -28.0484 44.4063 0.31
			vertex -28.0484 44.4063 0.23
		endloop
	endfacet
	facet normal -0.00101818 -0.00106073 3.43246e-012
		outer loop
			vertex -28.0484 44.4063 0.31
			vertex -28.0617 44.419 0.31
			vertex -28.0484 44.4063 0.23
		endloop
	endfacet
	facet normal -0.00101818 -0.00106073 -2.57434e-012
		outer loop
			vertex -28.0617 44.419 0.31
			vertex -28.0617 44.419 0.23
			vertex -28.0484 44.4063 0.23
		endloop
	endfacet
	facet normal -0.00123339 -0.000800368 2.57433e-012
		outer loop
			vertex -28.0717 44.4344 0.31
			vertex -28.0617 44.419 0.23
			vertex -28.0617 44.419 0.31
		endloop
	endfacet
	facet normal -0.00123339 -0.000800368 -1.7162e-012
		outer loop
			vertex -28.0717 44.4344 0.23
			vertex -28.0617 44.419 0.23
			vertex -28.0717 44.4344 0.31
		endloop
	endfacet
	facet normal -0.0013835 -0.000497766 1.71626e-012
		outer loop
			vertex -28.0717 44.4344 0.23
			vertex -28.0717 44.4344 0.31
			vertex -28.0779 44.4517 0.23
		endloop
	endfacet
	facet normal -0.0013835 -0.000497766 -8.58117e-013
		outer loop
			vertex -28.0717 44.4344 0.31
			vertex -28.0779 44.4517 0.31
			vertex -28.0779 44.4517 0.23
		endloop
	endfacet
	facet normal -0.00146059 -0.000168894 8.58107e-013
		outer loop
			vertex -28.0779 44.4517 0.31
			vertex -28.08 44.47 0.31
			vertex -28.0779 44.4517 0.23
		endloop
	endfacet
	facet normal -0.00146059 -0.000168893 -0
		outer loop
			vertex -28.08 44.47 0.31
			vertex -28.08 44.47 0.23
			vertex -28.0779 44.4517 0.23
		endloop
	endfacet
	facet normal -0.000440749 0.0014027 6.89692e-015
		outer loop
			vertex -28.0326 43.9431 0.23
			vertex -28.0151 43.9486 0.31
			vertex -28.0151 43.9486 0.23
		endloop
	endfacet
	facet normal -0.000440749 0.0014027 4.45214e-016
		outer loop
			vertex -28.0326 43.9431 0.31
			vertex -28.0151 43.9486 0.31
			vertex -28.0326 43.9431 0.23
		endloop
	endfacet
	facet normal -0.000749238 0.0012651 -5.35647e-016
		outer loop
			vertex -28.0326 43.9431 0.31
			vertex -28.0326 43.9431 0.23
			vertex -28.0484 43.9337 0.31
		endloop
	endfacet
	facet normal -0.000749238 0.0012651 4.00369e-016
		outer loop
			vertex -28.0326 43.9431 0.23
			vertex -28.0484 43.9337 0.23
			vertex -28.0484 43.9337 0.31
		endloop
	endfacet
	facet normal -0.00101818 0.00106073 -3.91707e-016
		outer loop
			vertex -28.0484 43.9337 0.23
			vertex -28.0617 43.921 0.23
			vertex -28.0484 43.9337 0.31
		endloop
	endfacet
	facet normal -0.00101818 0.00106073 2.82761e-016
		outer loop
			vertex -28.0617 43.921 0.23
			vertex -28.0617 43.921 0.31
			vertex -28.0484 43.9337 0.31
		endloop
	endfacet
	facet normal -0.00123339 0.000800368 -3.03035e-016
		outer loop
			vertex -28.0717 43.9056 0.23
			vertex -28.0617 43.921 0.31
			vertex -28.0617 43.921 0.23
		endloop
	endfacet
	facet normal -0.00123339 0.000800368 2.50535e-016
		outer loop
			vertex -28.0717 43.9056 0.31
			vertex -28.0617 43.921 0.31
			vertex -28.0717 43.9056 0.23
		endloop
	endfacet
	facet normal -0.0013835 0.000497766 -1.45309e-016
		outer loop
			vertex -28.0717 43.9056 0.31
			vertex -28.0717 43.9056 0.23
			vertex -28.0779 43.8883 0.31
		endloop
	endfacet
	facet normal -0.0013835 0.000497766 8.09492e-017
		outer loop
			vertex -28.0717 43.9056 0.23
			vertex -28.0779 43.8883 0.23
			vertex -28.0779 43.8883 0.31
		endloop
	endfacet
	facet normal -0.00146059 0.000168893 -1.04585e-016
		outer loop
			vertex -28.0779 43.8883 0.23
			vertex -28.08 43.87 0.23
			vertex -28.0779 43.8883 0.31
		endloop
	endfacet
	facet normal -0.00146059 0.000168893 0
		outer loop
			vertex -28.08 43.87 0.23
			vertex -28.08 43.87 0.31
			vertex -28.0779 43.8883 0.31
		endloop
	endfacet
	facet normal -0.0184235 0 -0
		outer loop
			vertex -28.08 43.6397 0.31
			vertex -28.08 43.87 0.23
			vertex -28.08 43.6397 0.23
		endloop
	endfacet
	facet normal -0.0184235 -0 -0
		outer loop
			vertex -28.08 43.87 0.31
			vertex -28.08 43.87 0.23
			vertex -28.08 43.6397 0.31
		endloop
	endfacet
	facet normal 0.0016749 0.00317038 -2.81587e-016
		outer loop
			vertex -28.08 43.6397 0.23
			vertex -28.1196 43.6606 0.31
			vertex -28.08 43.6397 0.31
		endloop
	endfacet
	facet normal 0.0016749 0.00317038 7.43805e-017
		outer loop
			vertex -28.1196 43.6606 0.23
			vertex -28.1196 43.6606 0.31
			vertex -28.08 43.6397 0.23
		endloop
	endfacet
	facet normal 0.000945868 0.00345861 4.2067e-017
		outer loop
			vertex -28.1629 43.6725 0.31
			vertex -28.1196 43.6606 0.31
			vertex -28.1196 43.6606 0.23
		endloop
	endfacet
	facet normal 0.000202781 0.00257101 8.99888e-018
		outer loop
			vertex -28.195 43.675 0.23
			vertex -28.1629 43.6725 0.31
			vertex -28.1629 43.6725 0.23
		endloop
	endfacet
	facet normal 0.000945868 0.00345861 4.2005e-017
		outer loop
			vertex -28.1629 43.6725 0.31
			vertex -28.1196 43.6606 0.23
			vertex -28.1629 43.6725 0.23
		endloop
	endfacet
	facet normal 0.000202781 0.00257101 -0
		outer loop
			vertex -28.195 43.675 0.23
			vertex -28.195 43.675 0.31
			vertex -28.1629 43.6725 0.31
		endloop
	endfacet
	facet normal -3.11604e-005 0.00101049 0
		outer loop
			vertex -28.2076 43.6746 0.23
			vertex -28.195 43.675 0.31
			vertex -28.195 43.675 0.23
		endloop
	endfacet
	facet normal -3.11604e-005 0.00101049 -1.3838e-018
		outer loop
			vertex -28.2076 43.6746 0.31
			vertex -28.195 43.675 0.31
			vertex -28.2076 43.6746 0.23
		endloop
	endfacet
	facet normal -0.00061083 0.0035332 -2.71263e-017
		outer loop
			vertex -28.2076 43.6746 0.31
			vertex -28.2076 43.6746 0.23
			vertex -28.2518 43.667 0.31
		endloop
	endfacet
	facet normal -0.00061083 0.0035332 0
		outer loop
			vertex -28.2076 43.6746 0.23
			vertex -28.2518 43.667 0.23
			vertex -28.2518 43.667 0.31
		endloop
	endfacet
	facet normal -0.00136408 0.00331601 0
		outer loop
			vertex -28.2518 43.667 0.23
			vertex -28.2932 43.6499 0.31
			vertex -28.2518 43.667 0.31
		endloop
	endfacet
	facet normal -0.00136408 0.00331601 0
		outer loop
			vertex -28.2932 43.6499 0.23
			vertex -28.2932 43.6499 0.31
			vertex -28.2518 43.667 0.23
		endloop
	endfacet
	facet normal -0.00205213 0.0029403 0
		outer loop
			vertex -28.33 43.6243 0.31
			vertex -28.2932 43.6499 0.31
			vertex -28.2932 43.6499 0.23
		endloop
	endfacet
	facet normal -0.00205213 0.0029403 0
		outer loop
			vertex -28.33 43.6243 0.31
			vertex -28.2932 43.6499 0.23
			vertex -28.33 43.6243 0.23
		endloop
	endfacet
	facet normal 0.0762597 0 0
		outer loop
			vertex -28.33 44.5775 0.31
			vertex -28.33 43.6243 0.23
			vertex -28.33 44.5775 0.23
		endloop
	endfacet
	facet normal 0.0762597 -0 0
		outer loop
			vertex -28.33 43.6243 0.31
			vertex -28.33 43.6243 0.23
			vertex -28.33 44.5775 0.31
		endloop
	endfacet
	facet normal 0.00185919 -0.00305663 0
		outer loop
			vertex -28.1182 44.5543 0.31
			vertex -28.08 44.5775 0.23
			vertex -28.08 44.5775 0.31
		endloop
	endfacet
	facet normal 0.00185919 -0.00305663 0
		outer loop
			vertex -28.1182 44.5543 0.23
			vertex -28.08 44.5775 0.23
			vertex -28.1182 44.5543 0.31
		endloop
	endfacet
	facet normal 0.00115212 -0.00338706 0
		outer loop
			vertex -28.1605 44.5399 0.23
			vertex -28.1182 44.5543 0.23
			vertex -28.1605 44.5399 0.31
		endloop
	endfacet
	facet normal 0.000390231 -0.0035563 0
		outer loop
			vertex -28.205 44.535 0.23
			vertex -28.1605 44.5399 0.23
			vertex -28.205 44.535 0.31
		endloop
	endfacet
	facet normal -0.000390231 -0.0035563 0
		outer loop
			vertex -28.2495 44.5399 0.23
			vertex -28.205 44.535 0.23
			vertex -28.2495 44.5399 0.31
		endloop
	endfacet
	facet normal -0.00115212 -0.00338706 0
		outer loop
			vertex -28.2918 44.5543 0.23
			vertex -28.2495 44.5399 0.23
			vertex -28.2918 44.5543 0.31
		endloop
	endfacet
	facet normal -0.00185919 -0.00305663 0
		outer loop
			vertex -28.33 44.5775 0.23
			vertex -28.2918 44.5543 0.23
			vertex -28.33 44.5775 0.31
		endloop
	endfacet
	facet normal -0.00185919 -0.00305663 0
		outer loop
			vertex -28.2918 44.5543 0.23
			vertex -28.2918 44.5543 0.31
			vertex -28.33 44.5775 0.31
		endloop
	endfacet
	facet normal -0.00115212 -0.00338706 0
		outer loop
			vertex -28.2495 44.5399 0.23
			vertex -28.2495 44.5399 0.31
			vertex -28.2918 44.5543 0.31
		endloop
	endfacet
	facet normal -0.000390231 -0.0035563 0
		outer loop
			vertex -28.205 44.535 0.23
			vertex -28.205 44.535 0.31
			vertex -28.2495 44.5399 0.31
		endloop
	endfacet
	facet normal 0.000390231 -0.0035563 0
		outer loop
			vertex -28.1605 44.5399 0.23
			vertex -28.1605 44.5399 0.31
			vertex -28.205 44.535 0.31
		endloop
	endfacet
	facet normal 0.00115212 -0.00338706 0
		outer loop
			vertex -28.1182 44.5543 0.23
			vertex -28.1182 44.5543 0.31
			vertex -28.1605 44.5399 0.31
		endloop
	endfacet
	facet normal 0 0 -0.0350354
		outer loop
			vertex -28.33 44.5775 0.31
			vertex -28.2932 43.6499 0.31
			vertex -28.33 43.6243 0.31
		endloop
	endfacet
	facet normal -0 0 -0.0345873
		outer loop
			vertex -28.2918 44.5543 0.31
			vertex -28.2932 43.6499 0.31
			vertex -28.33 44.5775 0.31
		endloop
	endfacet
	facet normal -0 0 -0.200015
		outer loop
			vertex -28.0717 43.9056 0.31
			vertex -28.2932 43.6499 0.31
			vertex -28.2918 44.5543 0.31
		endloop
	endfacet
	facet normal 0 0 -0.00988402
		outer loop
			vertex -28.0717 43.9056 0.31
			vertex -28.2918 44.5543 0.31
			vertex -28.0617 43.921 0.31
		endloop
	endfacet
	facet normal 0 0 -0.0234991
		outer loop
			vertex -28.2918 44.5543 0.31
			vertex -28.2495 44.5399 0.31
			vertex -28.0617 43.921 0.31
		endloop
	endfacet
	facet normal 0 0 -0.0935321
		outer loop
			vertex -28.2495 44.5399 0.31
			vertex -28.0617 44.419 0.31
			vertex -28.0617 43.921 0.31
		endloop
	endfacet
	facet normal 0 -0 -0.00660386
		outer loop
			vertex -28.0617 44.419 0.31
			vertex -28.0484 43.9337 0.31
			vertex -28.0617 43.921 0.31
		endloop
	endfacet
	facet normal -0 0 -0.00626635
		outer loop
			vertex -28.0484 44.4063 0.31
			vertex -28.0484 43.9337 0.31
			vertex -28.0617 44.419 0.31
		endloop
	endfacet
	facet normal -0 0 -0.00747372
		outer loop
			vertex -28.0326 43.9431 0.31
			vertex -28.0484 43.9337 0.31
			vertex -28.0484 44.4063 0.31
		endloop
	endfacet
	facet normal -0 0 -0.0079582
		outer loop
			vertex -28.0151 43.9486 0.31
			vertex -28.0326 43.9431 0.31
			vertex -28.0326 44.3969 0.31
		endloop
	endfacet
	facet normal 9.30865e-015 3.64022e-016 -0.007765
		outer loop
			vertex -28.0151 43.9486 0.31
			vertex -28.0326 44.3969 0.31
			vertex -28.0151 44.3914 0.31
		endloop
	endfacet
	facet normal -0 0 -0.0022414
		outer loop
			vertex -28.0779 43.8883 0.31
			vertex -28.2932 43.6499 0.31
			vertex -28.0717 43.9056 0.31
		endloop
	endfacet
	facet normal -0 0 -0.00620687
		outer loop
			vertex -28.2518 43.667 0.31
			vertex -28.2932 43.6499 0.31
			vertex -28.0779 43.8883 0.31
		endloop
	endfacet
	facet normal -0 0 -0.00765487
		outer loop
			vertex -28.2076 43.6746 0.31
			vertex -28.2518 43.667 0.31
			vertex -28.08 43.87 0.31
		endloop
	endfacet
	facet normal 0 0 -0.00241828
		outer loop
			vertex -28.2076 43.6746 0.31
			vertex -28.08 43.87 0.31
			vertex -28.195 43.675 0.31
		endloop
	endfacet
	facet normal 0 0 -0.00655834
		outer loop
			vertex -28.08 43.87 0.31
			vertex -28.1629 43.6725 0.31
			vertex -28.195 43.675 0.31
		endloop
	endfacet
	facet normal 0 0 -0.00951965
		outer loop
			vertex -28.1196 43.6606 0.31
			vertex -28.1629 43.6725 0.31
			vertex -28.08 43.87 0.31
		endloop
	endfacet
	facet normal 0 0 -0.00912651
		outer loop
			vertex -28.1196 43.6606 0.31
			vertex -28.08 43.87 0.31
			vertex -28.08 43.6397 0.31
		endloop
	endfacet
	facet normal 0 0 -0.00270792
		outer loop
			vertex -28.2518 43.667 0.31
			vertex -28.0779 43.8883 0.31
			vertex -28.08 43.87 0.31
		endloop
	endfacet
	facet normal 0 0 -0.00717751
		outer loop
			vertex -28.0326 43.9431 0.31
			vertex -28.0484 44.4063 0.31
			vertex -28.0326 44.3969 0.31
		endloop
	endfacet
	facet normal 0 0 -0.00168623
		outer loop
			vertex -28.2495 44.5399 0.31
			vertex -28.0717 44.4344 0.31
			vertex -28.0617 44.419 0.31
		endloop
	endfacet
	facet normal -0 -0 -0.00381949
		outer loop
			vertex -28.205 44.535 0.31
			vertex -28.0717 44.4344 0.31
			vertex -28.2495 44.5399 0.31
		endloop
	endfacet
	facet normal -0 -0 -0.00168019
		outer loop
			vertex -28.0779 44.4517 0.31
			vertex -28.0717 44.4344 0.31
			vertex -28.205 44.535 0.31
		endloop
	endfacet
	facet normal -0 -0 -0.00132303
		outer loop
			vertex -28.08 44.47 0.31
			vertex -28.0779 44.4517 0.31
			vertex -28.1605 44.5399 0.31
		endloop
	endfacet
	facet normal 0 -0 -0.00410809
		outer loop
			vertex -28.08 44.5775 0.31
			vertex -28.08 44.47 0.31
			vertex -28.1182 44.5543 0.31
		endloop
	endfacet
	facet normal 0 0 -0.0041185
		outer loop
			vertex -28.08 44.47 0.31
			vertex -28.1605 44.5399 0.31
			vertex -28.1182 44.5543 0.31
		endloop
	endfacet
	facet normal 0 0 -0.00432114
		outer loop
			vertex -28.0779 44.4517 0.31
			vertex -28.205 44.535 0.31
			vertex -28.1605 44.5399 0.31
		endloop
	endfacet
endsolid default:import_1
