2300 0 1 0           
4 HQH1 12 ACIS 23.0 NT 24 Fri Apr 25 17:10:48 2025 
1 9.9999999999999995e-007 1e-010 
body $-1 -1 -1 $-1 $1 $-1 $-1 F #
lump $-1 -1 -1 $-1 $-1 $2 $0 F #
shell $-1 -1 -1 $-1 $-1 $-1 $3 $-1 $1 F #
face $-1 -1 -1 $-1 $-1 $4 $2 $-1 $5 reversed double out F F #
loop $-1 -1 -1 $-1 $-1 $6 $3 F unknown #
spline-surface $-1 -1 -1 $-1 forward { exactsur full nurbs 1 2 both open periodic none none 2 5 
	1967.804857758 1 2128.1179373711452 1 
	0 2 0.31415927696964602 2 0.62831855393929192 2 0.94247783090893789 2 1.2566371078785841 2 
	35.376973234489533 9.299892194442748 1.9300000258705301 1 
	35.376973234489533 -22.762724913153079 1.9300000258705301 1 
	35.576973241881113 9.2998921944427462 1.9300000258705303 0.70710678118654746 
	35.576973241881113 -22.762724913153082 1.9300000258705303 0.70710678118654746 
	35.576973241881113 9.299892194442748 1.7300000184789499 1 
	35.576973241881113 -22.762724913153079 1.7300000184789499 1 
	35.576973241881113 9.2998921944427462 1.5300000110873697 0.70710678118654746 
	35.576973241881113 -22.762724913153082 1.5300000110873697 0.70710678118654746 
	35.376973234489533 9.299892194442748 1.5300000110873699 1 
	35.376973234489533 -22.762724913153079 1.5300000110873699 1 
	35.176973227097953 9.2998921944427462 1.5300000110873697 0.70710678118654746 
	35.176973227097953 -22.762724913153082 1.5300000110873697 0.70710678118654746 
	35.176973227097953 9.299892194442748 1.7300000184789499 1 
	35.176973227097953 -22.762724913153079 1.7300000184789499 1 
	35.176973227097953 9.2998921944427462 1.9300000258705303 0.70710678118654746 
	35.176973227097953 -22.762724913153082 1.9300000258705303 0.70710678118654746 
	35.376973234489533 9.299892194442748 1.9300000258705301 1 
	35.376973234489533 -22.762724913153079 1.9300000258705301 1 
	0 
	0 
	0 
	0 
	0 
	0 
	0 
	F 1 F 0 F 1 F 0 } I I I I #
coedge $-1 -1 -1 $-1 $7 $8 $-1 $9 reversed $4 $10 #
coedge $-1 -1 -1 $-1 $11 $6 $-1 $12 forward $4 $13 #
coedge $-1 -1 -1 $-1 $6 $11 $-1 $14 forward $4 $15 #
edge $16 -1 -1 $-1 $17 0 $18 1 $6 $19 forward @7 unknown F #
pcurve $-1 -1 -1 $-1 0 forward { exppc nubs 1 open 2 
	-1 1 -0 1 
	1967.804857758 0.32185869055191668 
	1967.804857758 0.62831855393929192 
	0.001 
	-1 
	spline reversed { ref 0 } I I I I 
	} 0 0 #
tcoedge-coedge $-1 -1 -1 $-1 $8 $7 $-1 $20 forward $4 $21 0.97298692559340672 1.3021258237945239 F #
edge $22 -1 -1 $-1 $17 0 $23 31.918502087573938 $7 $24 forward @7 unknown F #
pcurve $-1 -1 -1 $-1 0 forward { exppc nubs 1 open 2 
	0 1 31.918502087573938 1 
	1967.804857758 0.62831855393929192 
	2127.3973622976669 0.62831855393929192 
	0.001 
	-1 
	spline reversed { ref 0 } I I I I 
	} 0 0 #
edge $25 -1 -1 $-1 $26 0 $18 32.062439928842856 $8 $27 forward @7 unknown F #
pcurve $-1 -1 -1 $-1 0 forward { exppc nubs 1 open 2 
	0 1 32.062439928842856 1 
	2128.117051477413 0.3218586905519169 
	1967.804857758 0.32185869055191668 
	0.001 
	-1 
	spline reversed { ref 0 } I I I I 
	} 0 0 #
rgb_color-st-attrib $-1 -1 $-1 $-1 $9 2 1 2 1 1 1 1 1 1 1 1 1 1 1 0 1 1 1 0.83921569824218745 0.44705883026123044 0.38823528289794923 #
vertex $-1 -1 -1 $-1 $9 $28 #
vertex $-1 -1 -1 $-1 $9 $29 #
intcurve-curve $30 -1 -1 $-1 forward { exactcur full nurbs 2 open 2 
	0 2 1 2 
	35.376973234489533 9.299892194442748 1.5300000110873699 1 
	35.570110996588923 9.299892194442748 1.5300000110873706 0.71933980033865041 
	35.576851407280429 9.299892194442748 1.7230201188804879 1 
	0 
	null_surface 
	null_surface 
	nullbs 
	nullbs 
	-1 
	-1 
	I I 
	0 
	0 
	0 
	
	-1 
	none F F 1 F 0 } I I #
tedge-edge $31 -1 -1 $-1 $23 0.97298692559340672 $26 1.3021258237945239 $11 $32 forward @7 unknown F 5.427718090698403e-005 #
pcurve $-1 -1 -1 $-1 0 forward { exppc nubs 5 open 14 
	0.97298692559340672 5 0.97886440591842661 3 0.98474188624344661 3 0.9964968468934865 3 1.0200067681935663 1 
	1.0652011358978319 3 1.0670266107937258 3 1.1140464533938856 1 1.1574153462022569 4 1.1610662959940452 3 
	1.2080861385942048 1 1.233250325967753 4 1.2551059811943643 2 1.3021258237945239 5 
	2127.3973622976669 0.62831855393929192 
	2127.4003103158379 0.62718902220246042 
	2127.403271552424 0.62605479851539358 
	2127.4062457118084 0.62493373241024031 
	2127.4122192849404 0.62268224644965608 
	2127.418242184332 0.62043587408328771 
	2127.4212656699751 0.61931397418368372 
	2127.4303713479003 0.615952157524424 
	2127.4395800282568 0.61260206268179351 
	2127.44576256242 0.61037394044269455 
	2127.4644333118758 0.60370559127881362 
	2127.5078262517809 0.58860216432648571 
	2127.5460394514098 0.57589387429808259 
	2127.5849403666934 0.5633842099233356 
	2127.6250961434607 0.55073957924730166 
	2127.6518221177848 0.5423910217964687 
	2127.6528596048897 0.54206701944966607 
	2127.680617483627 0.53340068234419324 
	2127.7328665017089 0.51719974300470528 
	2127.7831411541943 0.50156860735162523 
	2127.8312077112878 0.48615427317704429 
	2127.8757981202962 0.47094405719760174 
	2127.8979743895134 0.46307929674496801 
	2127.8996950719693 0.46246695740046495 
	2127.9014143436652 0.46185296787867025 
	2127.9252537947714 0.45330882267166883 
	2127.9604263250826 0.44005374403499414 
	2127.9923513224467 0.4268715554261075 
	2128.0213896484383 0.41321483301756279 
	2128.0462088412914 0.39909452482676583 
	2128.0613122073214 0.38978851538547621 
	2128.0678864851543 0.38541822530469938 
	2128.087162720678 0.37150639661021367 
	2128.1017811681531 0.3571651100820124 
	2128.1113823600463 0.34243556242530038 
	2128.1154842273627 0.33221959182108618 
	2128.1170190626185 0.32185845005518426 
	2.4102744309510107e-006 
	2.6013694631555839e-006 
	spline forward { ref 0 } I I I I 
	} 0 0 #
rgb_color-st-attrib $-1 -1 $-1 $-1 $12 2 1 2 1 1 1 1 1 1 1 1 1 1 1 0 1 1 1 0.83921569824218745 0.44705883026123044 0.38823528289794923 #
tvertex-vertex $-1 -1 -1 $-1 $12 $33 3.1974423109204508e-014 #
straight-curve $34 -1 -1 $-1 35.376973234489533 9.299892194442748 1.5300000110873699 0 -1 0 I I #
rgb_color-st-attrib $-1 -1 $-1 $-1 $14 2 1 2 1 1 1 1 1 1 1 1 1 1 1 0 1 1 1 0.83921569824218745 0.44705883026123044 0.38823528289794923 #
tvertex-vertex $-1 -1 -1 $-1 $20 $35 8.8333840576747567e-006 #
straight-curve $36 -1 -1 $-1 35.576851407280429 -22.762547734400108 1.7230201188804879 0 1 0 I I #
point $-1 -1 -1 $-1 35.376973234489533 9.299892194442748 1.5300000110873699 #
point $-1 -1 -1 $-1 35.576851407280429 9.299892194442748 1.7230201188804879 #
rgb_color-st-attrib $-1 -1 $-1 $-1 $19 2 1 2 1 1 1 1 1 1 1 1 1 1 1 0 1 1 1 0.83921569824218745 0.44705883026123044 0.38823528289794923 #
rgb_color-st-attrib $-1 -1 $-1 $-1 $20 2 1 2 1 1 1 1 1 1 1 1 1 1 1 0 1 1 1 0.83921569824218745 0.44705883026123044 0.38823528289794923 #
intcurve-curve $37 -1 -1 $-1 forward { exactcur full nubs 3 open 5 
	0.97298692559340672 3 1.0652011358978319 2 1.1574153462022569 2 1.233250325967753 2 1.3021258237945239 3 
	35.376973234489533 -22.61860989313119 1.5300000110873699 
	35.403565110419109 -22.63402745091798 1.5300000110873699 
	35.431426317876202 -22.651614218099681 1.5355583088994631 
	35.482388373029522 -22.686559402260372 1.557778171859374 
	35.505522747886737 -22.703890737813861 1.574405398056179 
	35.539032525584219 -22.730310110376259 1.6106951796786091 
	35.55290390201526 -22.74187610015645 1.6315602110656251 
	35.571022623405902 -22.757370377120921 1.676386620510232 
	35.576003793285601 -22.761791833462009 1.6999393171070349 
	35.576845422623492 -22.762541251440979 1.7230205475950551 
	0 
	null_surface 
	null_surface 
	nullbs 
	nullbs 
	-1 
	-1 
	I I 
	0 
	3 1.0652011358978319 1.1574153462022569 1.233250325967753 
	0 
	
	-1 
	none F F 1 F 0 } I I #
point $-1 -1 -1 $-1 35.376973234489533 -22.61860989313119 1.5300000110873699 #
rgb_color-st-attrib $-1 -1 $-1 $-1 $24 2 1 2 1 1 1 1 1 1 1 1 1 1 1 0 1 1 1 0.83921569824218745 0.44705883026123044 0.38823528289794923 #
point $-1 -1 -1 $-1 35.576851407280429 -22.762547734400108 1.7230201188804879 #
rgb_color-st-attrib $-1 -1 $-1 $-1 $27 2 1 2 1 1 1 1 1 1 1 1 1 1 1 0 1 1 1 0.83921569824218745 0.44705883026123044 0.38823528289794923 #
rgb_color-st-attrib $-1 -1 $-1 $-1 $32 2 1 2 1 1 1 1 1 1 1 1 1 1 1 0 1 1 1 0.83921569824218745 0.44705883026123044 0.38823528289794923 #
End-of-ACIS-data 